<?xml version="1.0" standalone="no"?>
<!DOCTYPE svg PUBLIC "-//W3C//DTD SVG 20010904//EN"
 "http://www.w3.org/TR/2001/REC-SVG-20010904/DTD/svg10.dtd">
<svg version="1.0" xmlns="http://www.w3.org/2000/svg"
 width="512.000000pt" height="512.000000pt" viewBox="0 0 512.000000 512.000000"
 preserveAspectRatio="xMidYMid meet">
<metadata>
Created by potrace 1.14, written by Peter Selinger 2001-2017
</metadata>
<g transform="translate(0.000000,512.000000) scale(0.100000,-0.100000)"
fill="#000000" stroke="none">
<path d="M559 5105 c-219 -44 -418 -210 -508 -423 -53 -126 -51 -55 -51 -2122
0 -2158 -5 -2004 76 -2170 39 -79 62 -110 133 -181 72 -72 102 -94 181 -132
169 -83 10 -77 2170 -77 2160 0 2001 -6 2170 77 79 38 109 60 181 132 72 72
94 102 132 181 83 169 77 10 77 2170 0 2160 6 2001 -77 2170 -38 79 -60 109
-132 181 -71 71 -102 94 -181 133 -166 82 -10 76 -2178 75 -1550 -1 -1940 -3
-1993 -14z m466 -795 c626 -43 1196 -234 1710 -575 941 -625 1520 -1650 1571
-2783 l7 -152 -336 0 -335 0 -6 98 c-35 554 -168 990 -431 1412 -145 233 -374
495 -590 677 -464 389 -1063 624 -1657 650 l-148 6 0 339 0 338 33 0 c17 0
100 -5 182 -10z m64 -1205 c673 -84 1259 -447 1640 -1015 232 -347 364 -743
387 -1167 l7 -123 -336 0 -335 0 -6 78 c-19 254 -75 464 -176 667 -78 157
-171 285 -300 416 -290 295 -645 456 -1062 485 l-98 7 0 333 0 334 78 0 c43 0
133 -7 201 -15z m291 -1376 c117 -27 256 -133 308 -234 94 -185 60 -406 -83
-550 -150 -149 -385 -179 -568 -72 -57 34 -148 132 -177 191 -151 313 69 671
415 675 33 0 80 -4 105 -10z"/>
</g>
</svg>
